<svg xmlns="http://www.w3.org/2000/svg" xmlns:xlink="http://www.w3.org/1999/xlink" version="1.1" style="overflow: hidden; display: block;" viewBox="61.37 250.9 675.71 332.13"><defs><linearGradient id="dddraw-gradient" x1="711" y1="-400" x2="711" y2="800" spreadMethod="pad" gradientUnits="userSpaceOnUse"><stop offset="0%" stop-color="hsl(1.4, 100%, 67%)" stop-opacity="1"/><stop offset="100%" stop-color="hsl(167, 52%, 78%)" stop-opacity="1"/></linearGradient></defs><g id="two-0" transform="matrix(1 0 0 1 0 0)" opacity="1"/><path d="M 669.2174843003564 382.1175738028762 Q 669.2174843003564 382.1175738028762 661.0242885291566 369.15430825484583 652.8310927579569 356.19104270681544 640.8105395865965 344.12722895186914 628.7899864152362 332.06341519692285 607.1150230105334 320.02469994263515 585.4400596058306 307.9859846883474 551.3031811144751 296.8283406096318 517.1663026231197 285.67069653091625 468.8531061068261 277.69577772316245 420.53990959053243 269.7208589154087 364.9516883109484 267.49726488131466 309.3634670313644 265.27367084722056 254.97330621164684 273.07029779644586 200.58314539192932 280.86692474567116 158.23007760458444 298.61524092657027 115.87700981723958 316.3635571074694 94.55707344029756 344.0275061479837 73.23713706335552 371.69145518849797 75.59916533201056 402.2708678577187 77.96119360066558 432.8502805269395 100.82907932401417 461.4128406317733 123.69696504736275 489.9754007366071 170.65414344795556 513.5694725053512 217.61132184854836 537.1635442740953 274.9241889908982 550.5084388528383 332.2370561332481 563.8533334315812 396.37353825040907 566.7557824909524 460.51002036757 569.6582315503235 520.3194708369026 562.5361072163653 580.1289213062352 555.413982882407 625.3868909660707 540.1911844060327 670.6448606259064 524.9683859296583 694.37383576822 502.28692830241425 718.1028109105337 479.6054706751701 722.4292332596916 457.51789201373686 726.7556556088496 435.43031335230353 712.1675871467487 413.9219260054741 697.5795186846478 392.4135386586447 668.211641791307 374.2153348296963 638.8437648979661 356.0171310007479 598.6634488721087 343.0024395077653 558.4831328462512 329.98774801478265 513.6459056042914 324.0407451015685 468.8086783623316 318.09374218835444 431.541194018022 318.3422609681248 394.27370967371235 318.5907797478951 377.0939658265165 319.0815345160886 359.9142219793207 319.572289284282 358.6714597120565 319.40476587821576 357.42869744479236 319.2372424721495 356.30448606841946 318.68166086180815 355.1802746920466 318.12607925146676 354.2923194344343 317.2406089781124 353.404364176822 316.355138704758 352.84563418783966 315.2324887397523 352.2869041988573 314.1098387747465 352.11589865584176 312.86755086577625 351.94489311282626 311.62526295680607 352.17951634127235 310.3934049758727 352.41413956971843 309.1615469949394 353.0298264556733 308.0690947978255 353.6455133416282 306.9766426007117 354.57780130560684 306.1379762208346 355.51008926958554 305.29930984095756 356.66136751565926 304.8022378696767 357.812645761733 304.30516589839584 359.06237515362994 304.20173190231867 360.3121045455269 304.09829790624144 361.52943808601896 304.3993314520611 362.746771626511 304.70036499788074 363.8042541725638 305.37434779388474 364.86173671861656 306.04833058988874 365.64864956851 307.0246964594213 366.4355624184035 308.00106232895394 366.86951558902905 309.17758550773954 367.3034687596546 310.3541086865251 367.3390272394952 311.6076068871728 367.37458571933576 312.86110508782053 367.0080265261655 314.0603367178312 366.6414673329953 315.2595683478419 365.9111693111015 316.278973538987 365.18087128920763 317.2983787301321 364.1632968342624 318.03122548980184 363.14572237931714 318.7640722494716 361.94741180536687 319.13363132847593 360.74910123141655 319.50319040748025 359.495517971877 319.4707688726932 358.2419347123375 319.4383473379062 357.06432926539645 319.00733973257843 355.8867238184554 318.5763321272507 354.90839178526517 317.79186506143503 353.9300597520749 317.0073979956194 353.253432754765 315.95160537818583 352.57680575745513 314.89581276075234 352.27272682125624 313.6792363574485 351.9686478850573 312.4626599541446 352.0689541548584 311.2126756355413 352.16926042465946 309.962691316938 352.6634498075341 308.8101727711568 353.1576391904087 307.65765422537555 353.99396992751656 306.72327044839506 354.8303006646244 305.7888866714146 355.92120870702047 305.17046789133815 357.01211674941646 304.5520491112617 358.2433837370901 304.3143439376099 359.47465072476365 304.0766387639581 359.47348855096595 304.07667173180243 359.4723263771682 304.07670469964677 376.8289249987232 303.58256872247864 394.1855236202782 303.08843274531046 432.5166448033142 302.907353786684 470.8477659863502 302.7262748280575 517.0512496187055 308.9829994616763 563.2547332510608 315.239724095295 605.1425208937435 329.05189340299455 647.0303085364262 342.86406271069404 678.6184770683728 363.246585036154 710.2066456003195 383.62910736161393 725.7771964867811 409.4797187242609 741.3477473732428 435.3303300869079 735.4605602334946 462.3785865811591 729.5733730937463 489.4268430754102 702.8413169765472 514.3986767784071 676.1092608593481 539.3705104814039 629.0644011941813 555.0981191676368 582.0195415290144 570.8257278538697 520.923186382992 578.0065724784589 459.82683123696944 585.1874171030481 394.2779468269623 582.1002735062901 328.7290624169551 579.0131299095322 269.67895058683223 565.0503195425578 210.62883875670929 551.0875091755834 161.2430789270352 525.5304955481544 111.85731909736116 499.9734819207253 87.37603705808735 467.6324045986719 62.894755018813534 435.2913272766184 61.45104217737469 399.96746334856766 60.00732933593584 364.643599420517 84.47863681450879 333.51833749916085 108.94994429308173 302.3930755778047 153.57528558184515 283.75453551455104 198.2006268706086 265.11599545129735 254.07601111141759 257.144720759869 309.95139535222654 249.1734460684407 366.5638437032243 251.3803158684359 423.17629205422196 253.58718566843106 472.73911823258754 261.70024375459377 522.3019444109532 269.8133018407564 557.9993724639016 281.4073830363295 593.6968005168501 293.0014642319026 617.4070645825452 306.1793777393832 641.1173286482403 319.35729124686384 654.710561792798 332.64650241333476 668.3037949373556 345.9357135798057 676.9591099083434 358.64640509354285 685.6144248793311 371.35709660728 686.1391087886516 372.41631333530825 686.6637926979721 373.4755300633364 686.9197342146165 374.62953492541124 687.1756757312609 375.7835397874861 687.1479995222564 376.96526196680315 687.1203233132519 378.14698414612013 686.8106379211663 379.28774189409444 686.5009525290807 380.4284996420687 685.9272568834524 381.46199206478974 685.3535612378241 382.4954844875108 684.5491985565322 383.3616449568116 683.7448358752403 384.22780542611235 682.756555755114 384.87629265482076 681.7682756349878 385.5247798835292 680.6535169630433 385.91790376344375 679.5387582910987 386.3110276433582 678.3623108937259 386.4259397961073 677.1858634963531 386.5408519488563 676.0161025515627 386.37087367472304 674.8463416067721 386.2008954005898 673.751253675636 385.7559058448532 672.6561657444998 385.3109162891166 671.6993973890283 384.6167782656639 670.7426290335568 383.9226402422112 669.9797876755233 383.0196970855793 669.2169463174899 382.11675392894745 669.2172153089232 382.11716386591183 Z" fill="hsl(0, 0%, 0%)"/></svg>